<?xml version="1.0" encoding="UTF-8"?>
<svg width="190px" height="169px" viewBox="0 0 190 169" version="1.1" xmlns="http://www.w3.org/2000/svg" xmlns:xlink="http://www.w3.org/1999/xlink">
    <!-- Generator: Sketch 52.5 (67469) - http://www.bohemiancoding.com/sketch -->
    <title>Co-co (1)</title>
    <desc>Created with Sketch.</desc>
    <g id="Page-1" stroke="none" stroke-width="1" fill="none" fill-rule="evenodd">
        <g id="Homepage-v3-(2)" transform="translate(-1044.000000, -2455.000000)" fill="#2A3356">
            <g id="Co-co-(1)" transform="translate(1044.000000, 2454.000000)">
                <path d="M0.01,119.13 C0.01,118.57 0.01,118.01 0.01,117.45 C0.55,102.84 3.42,99.22 17.82,96.7 C27.35,95.03 36.89,95.46 45.69,100.15 C47.69,101.22 50.2,103.06 50.69,104.99 C55.29,123.99 54.08,142.23 41.3,158.08 C33.66,167.55 23.21,167.89 14.63,159.14 C3.73,148.09 0.25,134.15 0.01,119.13 Z M44.28,134.63 C32.89,144.27 21.46,144.31 9.65,135.33 C11.23,144.42 20.55,152.57 27.65,152.25 C34.75,151.93 43.51,143.37 44.27,134.62 L44.28,134.63 Z M13.38,115.23 C11.0079545,116.478124 8.71676436,117.874214 6.52,119.41 C5.88,119.9 6.23,121.69 6.13,122.88 C7.28553411,123.044879 8.45422696,123.098458 9.62,123.04 C12.33,122.66 15.03,122.17 17.69,121.54 C18.7907547,121.158614 19.8469239,120.659029 20.84,120.05 C20.29,119.05 20.01,117.53 19.14,117.05 C17.73,116.18 16,115.98 13.37,115.22 L13.38,115.23 Z M39.38,115.12 C37.89,115.36 36.53,115.2 35.76,115.8 C34.4094198,117.019892 33.1711136,118.358601 32.06,119.8 L36.78,120.55 C38.53,120.82 40.27,121.09 42.02,121.35 C43.77,121.61 45.44,121.82 47.15,122.05 C46.21,120.28 45.62,118.11 44.22,116.85 C42.92,115.71 40.73,115.58 39.33,115.12 L39.38,115.12 Z" id="Shape" fill-rule="nonzero"></path>
                <path d="M55.06,85.69 C60.58,66.58 71.54,53.55 87.87,45.01 C89.8597702,44.0622511 92.1107183,43.8121458 94.26,44.3 C112,48.78 127.45,57.3 137.67,72.81 C140.08,76.47 138.5,82.75 138.8,88.63 C110.87,81.77 83.42,82.07 55.06,85.69 Z" id="Path"></path>
                <path d="M44.5,161.98 L53.95,146.63 C60.66,150.01 70.17,147.63 74.61,156.92 C77.32,152.51 75.26,147.52 70.04,145.41 C66.42,143.95 62.62,142.92 58.87,141.78 C56.02,140.91 55.3,139.41 55.98,136.34 C57.91,127.61 57.74,127.58 61.56,125.87 L53.83,101.69 C57.59,101.37 60.1,100.85 62.57,100.99 C72.3353509,101.461391 81.73728,104.839121 89.57,110.69 C94.57,114.44 96.91,118.69 95.35,125.57 C91.5,142.49 84,156.77 69.05,166.31 C59.66,172.33 50.68,170.65 44.5,161.98 Z M79.91,125.64 C78.48,126 77.19,126 76.38,126.64 C75.1124685,127.75984 73.9447352,128.9878 72.89,130.31 C74.46,130.64 76.03,131.01 77.61,131.31 C79.36,131.6 81.12,131.81 82.88,132.02 C84.64,132.23 86.32,132.4 88.04,132.58 C87.04,130.85 86.28,128.75 84.83,127.5 C83.53,126.35 81.43,126.16 79.91,125.65 L79.91,125.64 Z" id="Shape" fill-rule="nonzero"></path>
                <path d="M162.4,134.26 C171.47,137.26 177.32,134.06 177.81,125.66 C178.12,120.36 176.81,114.97 176.34,110.58 C169.96,109.23 164.21,108.96 159.34,106.79 C144.78,100.37 140.15,84.25 148.69,69.89 C151.8,64.66 156.07,60 160.38,55.64 C162.95,53.04 163.31,50.8 163.07,47.32 C162.68279,39.9539851 162.719518,32.5717975 163.18,25.21 C163.345299,23.1341566 164.212976,21.1765924 165.64,19.66 C167.73,17.56 170.64,14.53 172.88,14.8 C175.27,15.08 178.19,18.34 179.25,20.95 C182.48,28.95 181.47,37.18 178.25,45.02 C176.76,48.62 175.13,52.51 172.48,55.21 C167.79,59.98 168.84,65.03 170.41,70.21 C171.077502,71.5697749 172.336374,72.5443856 173.82,72.85 C181.43,73.98 186.96,77.98 188.9,85.28 C191.008289,92.5580061 188.421125,100.383085 182.39,104.97 C179.23,107.54 178.69,109.85 179.53,113.51 C180.552551,117.489052 181.066647,121.581664 181.06,125.69 C181.036132,131.763755 176.609547,136.923162 170.61,137.87 C164.2,139.08 159.01,136.57 156.13,130.87 C153.82,126.3 154.82,121.76 158.62,119.55 C162.083021,117.679044 166.406275,118.912991 168.36,122.33 C170.46,126.25 168.95,130.47 164.49,133.13 C163.95,133.44 163.46,133.69 162.4,134.26 Z M170.09,82.81 L167.99,81.95 C166.44,84.64 163.99,87.2 163.57,90.05 C163.15,93.15 164.68,96.51 165.32,99.54 C155.91,95.14 154.65,84.31 163.08,77.16 C168.8,72.3 168.94,71.56 165.44,64.64 C150.19,79.32 147.38,87.64 154.2,97.96 C159.03,105.25 167.01,108.1 174.81,104.96 L170.09,82.81 Z M166.25,49.88 C173.2,43.98 176.64,37.39 176.99,29.36 C177.07,27.54 175.84,25.66 175.22,23.81 C173.28,24.66 170.76,25.01 169.5,26.45 C163.65,33.12 163.55,40.83 166.25,49.88 Z M172.79,81.63 L177.64,104.49 C183.16,100.89 184.44,96.17 183.64,90.96 C182.86,85.54 179.17,82.68 172.79,81.63 Z" id="Shape" fill-rule="nonzero"></path>
                <path d="M53.93,96.8 C53.32,92.94 53.56,90.57 57.5,90.1 C83.64,86.97 109.72,86.02 135.5,92.92 C137.73,93.52 139.78,95.92 141.26,98.02 C144.47,102.48 147.26,107.23 150.48,112.27 C133.1,109.64 117.91,117.2 101.78,124.07 C100.03,112.33 93.98,104.25 84.28,98.96 C74.58,93.67 64.5,92.73 53.93,96.8 Z" id="Path"></path>
                <path d="M88.33,156.77 C92.89,147.58 97.16,138.92 101.49,130.29 C101.803998,129.605335 102.334639,129.043067 103,128.69 C116.91,122.94 130.33,115.43 146.16,116.58 C147.089663,116.628746 148.013229,116.75925 148.92,116.97 C150.052649,117.391133 151.158102,117.882074 152.23,118.44 C148.64,123.51 145.65,128.61 141.81,132.96 C131.58,144.58 119.02,153.35 105.35,160.43 C99.12,163.68 94.17,158.98 88.33,156.77 Z" id="Path"></path>
                <path d="M48.73,96.86 C33.87,94.13 23.66,79.86 24.48,64.13 C25.08,52.57 29.81,42.93 37.31,34.45 C39.311008,32.2170236 42.2546728,31.0687295 45.2391604,31.3569142 C48.223648,31.6450988 50.8932145,33.3354112 52.43,35.91 C55.97,41.75 59.61,47.54 62.98,53.48 C63.76,54.86 64.45,57.41 63.74,58.36 C55.2,69.85 49.91,82.56 48.73,96.86 Z M42.43,43.11 C38.12,43.26 34.8,46.7 34.9,50.39 C35,54.08 38.59,57.68 42.23,57.28 C46.4,56.83 49.23,54.51 49.13,50.04 C49.03,45.57 46.08,43.57 42.42,43.11 L42.43,43.11 Z M37.31,73.92 C37.44,77.74 40.91,81.13 44.65,80.78 C48.95,80.37 51.39,77.72 51.65,73.49 C51.88,70.03 47.9,66.56 44.22,66.63 C40.3413051,66.8321788 37.3000547,70.0360393 37.3,73.92 L37.31,73.92 Z" id="Shape" fill-rule="nonzero"></path>
                <path d="M77.61,44.44 C73.32,38.22 68.96,32.44 65.26,26.35 C62.26,21.35 64.88,14.27 70.09,11.71 C81.28,6.23 92.96,2.41 105.45,1.52 C113.19,0.97 116.79,2.88 118.28,7.83 C120.18,14.18 117.39,20.66 111.57,24.1 C100.12,30.87 88.73,37.76 77.61,44.44 Z M88.26,23.44 C87.61,19.38 85.17,16.91 80.9,16.74 C77.03,16.59 73.42,20.54 73.9,24.44 C74.41,28.72 77.02,31.23 81.4,30.91 C85.78,30.59 87.99,27.94 88.26,23.44 Z M102.63,21.16 C106.44,21.26 110.08,18.16 110.08,14.35 C110.08,9.91 107.44,7.41 103.2,7.09 C98.66,6.75 96.37,9.64 95.83,13.79 C95.35,17.44 98.86,21.02 102.63,21.12 L102.63,21.16 Z" id="Shape" fill-rule="nonzero"></path>
                <path d="M66.45,55.68 C62.45,47.14 53.83,42.42 54.31,32.68 C40.36,29.68 33.48,17.92 36.08,0.96 C42.53,3.83 49.08,6.96 55.82,9.68 C61.25,11.85 62.82,16.01 62.82,21.22 C62.82,23.22 62.56,25.29 63.82,26.54 C67.35,32.45 70.95,38.33 74.32,44.33 C74.7023343,45.4705834 74.5204891,46.7249443 73.83,47.71 C71.73,50.32 69.31,52.64 66.45,55.68 Z" id="Path"></path>
                <path d="M112.38,162.76 C119.57,158.05 126.52,154.02 132.86,149.18 C139.2,144.34 144.62,138.9 150.24,133.9 L161.42,144.35 C156.33,153.66 130.48,166.26 112.38,162.76 Z" id="Path"></path>
                <path d="M101.62,39.93 C110.605652,37.4750897 120.062623,37.3066449 129.13,39.44 C131.22,39.93 133.03,42.11 134.7,43.77 C136.65561,45.7747261 138.488917,47.8952186 140.19,50.12 C146.68,58.32 146.66,58.34 140.77,67.21 C134.96,61.91 129.59,55.92 123.16,51.44 C116.73,46.96 109.17,43.86 101.62,39.93 Z" id="Path"></path>
                <polygon id="Path" points="149.85 54.58 142.26 44.58 142.88 43.58 155.43 50.7"></polygon>
            </g>
        </g>
    </g>
</svg>